<?xml version="1.0" encoding="UTF-8" standalone="no"?>
<!-- Created with Inkscape (http://www.inkscape.org/) -->

<svg
   xmlns:dc="http://purl.org/dc/elements/1.1/"
   xmlns:cc="http://creativecommons.org/ns#"
   xmlns:rdf="http://www.w3.org/1999/02/22-rdf-syntax-ns#"
   xmlns:svg="http://www.w3.org/2000/svg"
   xmlns="http://www.w3.org/2000/svg"
   xmlns:sodipodi="http://sodipodi.sourceforge.net/DTD/sodipodi-0.dtd"
   xmlns:inkscape="http://www.inkscape.org/namespaces/inkscape"
   width="2949.1121"
   height="2662.3286"
   viewBox="0 0 2949.1121 2662.3285"
   id="svg2"
   version="1.1"
   inkscape:version="0.92.3 (2405546, 2018-03-11)"
   sodipodi:docname="flex.svg"
   inkscape:export-filename="/home/eric/data/WORK/PROJECT/TOOL/FLEX/LOGO/flex.png"
   inkscape:export-xdpi="90"
   inkscape:export-ydpi="90">
  <defs
     id="defs4">
    <marker
       inkscape:stockid="Arrow1Lstart"
       orient="auto"
       refY="0"
       refX="0"
       id="Arrow1Lstart"
       style="overflow:visible"
       inkscape:isstock="true">
      <path
         id="path4170"
         d="M 0,0 5,-5 -12.5,0 5,5 Z"
         style="fill:#000000;fill-opacity:1;fill-rule:evenodd;stroke:#000000;stroke-width:1.00000003pt;stroke-opacity:1"
         transform="matrix(0.8,0,0,0.8,10,0)"
         inkscape:connector-curvature="0" />
    </marker>
  </defs>
  <sodipodi:namedview
     id="base"
     pagecolor="#ffffff"
     bordercolor="#666666"
     borderopacity="1.0"
     inkscape:pageopacity="0.0"
     inkscape:pageshadow="2"
     inkscape:zoom="0.49497476"
     inkscape:cx="2113.2321"
     inkscape:cy="1031.407"
     inkscape:document-units="px"
     inkscape:current-layer="layer1"
     showgrid="false"
     units="px"
     inkscape:window-width="3840"
     inkscape:window-height="2095"
     inkscape:window-x="0"
     inkscape:window-y="32"
     inkscape:window-maximized="1"
     fit-margin-top="100"
     fit-margin-left="100"
     fit-margin-right="100"
     fit-margin-bottom="100"
     showguides="true"
     inkscape:guide-bbox="true">
    <inkscape:grid
       type="xygrid"
       id="grid4149"
       originx="243.55432"
       originy="-74.053574" />
  </sodipodi:namedview>
  <metadata
     id="metadata7">
    <rdf:RDF>
      <cc:Work
         rdf:about="">
        <dc:format>image/svg+xml</dc:format>
        <dc:type
           rdf:resource="http://purl.org/dc/dcmitype/StillImage" />
        <dc:title></dc:title>
      </cc:Work>
    </rdf:RDF>
  </metadata>
  <g
     inkscape:label="Calque 1"
     inkscape:groupmode="layer"
     id="layer1"
     transform="translate(243.55428,1684.0195)">
    <text
       xml:space="preserve"
       style="font-style:normal;font-weight:normal;font-size:15.10648251px;line-height:0%;font-family:sans-serif;letter-spacing:0px;word-spacing:0px;fill:#2b59d8;fill-opacity:1;stroke:#ffffff;stroke-width:22.65972519;stroke-linecap:butt;stroke-linejoin:miter;stroke-miterlimit:4;stroke-dasharray:none;stroke-opacity:1"
       x="-134.63651"
       y="851.44684"
       id="text4177"
       transform="scale(0.98208443,1.0182424)"><tspan
         sodipodi:role="line"
         x="-134.63651"
         y="851.44684"
         style="font-style:normal;font-variant:normal;font-weight:normal;font-stretch:normal;font-size:984.57159424px;line-height:100%;font-family:'KenVector Future';-inkscape-font-specification:'KenVector Future';letter-spacing:-98.91700745px;fill:#2b59d8;fill-opacity:1;stroke:none;stroke-width:22.65972519;stroke-miterlimit:4;stroke-dasharray:none;stroke-opacity:1"
         id="tspan4199">FLEX</tspan></text>
    <g
       id="g4558"
       transform="translate(-3184.0323,-550.66402)" />
    <g
       id="g4560"
       transform="translate(-3184.0323,-550.66402)" />
    <g
       id="g4562"
       transform="translate(-3184.0323,-550.66402)" />
    <g
       id="g4564"
       transform="translate(-3184.0323,-550.66402)" />
    <g
       id="g4566"
       transform="translate(-3184.0323,-550.66402)" />
    <g
       id="g4568"
       transform="translate(-3184.0323,-550.66402)" />
    <g
       id="g4570"
       transform="translate(-3184.0323,-550.66402)" />
    <g
       id="g4572"
       transform="translate(-3184.0323,-550.66402)" />
    <g
       id="g4574"
       transform="translate(-3184.0323,-550.66402)" />
    <g
       id="g4576"
       transform="translate(-3184.0323,-550.66402)" />
    <g
       id="g4578"
       transform="translate(-3184.0323,-550.66402)" />
    <g
       id="g4580"
       transform="translate(-3184.0323,-550.66402)" />
    <g
       id="g4582"
       transform="translate(-3184.0323,-550.66402)" />
    <g
       id="g4584"
       transform="translate(-3184.0323,-550.66402)" />
    <g
       id="g4586"
       transform="translate(-3184.0323,-550.66402)" />
    <g
       id="g957"
       transform="translate(-1084.3581,-32.324881)">
      <path
         style="fill:#d83f2b;fill-opacity:1;stroke-width:89.43818665"
         id="path4618"
         d="m 2220.8205,-384.15256 c -17.8878,0 -35.0599,-7.15508 -47.6706,-19.85529 l -243.8981,-245.95488 c -26.1157,-26.2948 -25.9371,-68.7782 0.3563,-94.894 26.3846,-26.02649 68.7783,-25.84749 94.9834,0.4473 l 193.008,194.61734 379.4861,-437.35269 c 24.2376,-27.99412 66.6313,-31.03532 94.6257,-6.7079 27.9941,24.2376 30.9456,66.6313 6.7079,94.6257 l -426.8885,491.90994 c -12.2532,14.13121 -29.8726,22.53842 -48.4756,23.16448 -0.7156,0 -1.5206,0 -2.2358,0 z"
         inkscape:connector-curvature="0" />
      <g
         style="fill:#52c5ff;fill-opacity:1"
         transform="matrix(2.3355133,-2.2818363,2.2818363,2.3355133,1136.2182,-730.74035)"
         id="g917">
        <path
           id="path913"
           d="m 512.113,256.114 v 8.399 c -0.3,7.2 -5.7,13.2 -12.9,14.401 l -30.3,4.499 c -9.6,1.201 -17.701,-6.299 -17.1,-15.899 0.3,-3.9 0.3,-7.5 0.3,-11.4 0,-0.3 0,-0.3 0,-0.601 -0.3,-107.1 -88.9,-194.399 -196,-194.399 -62.1,0 -118.599,29.399 -154.3,75 l 22.8,22.8 c 4.199,4.199 5.4,10.199 3.6,15.599 -1.8,5.4 -6,9 -11.7,9.901 0,0 -96.301,13.801 -99.3,14.099 -4.801,2.401 -18.6,-4.499 -17.1,-16.8 l 14.399,-99 c 0.601,-5.7 4.501,-10.499 9.901,-11.999 5.4,-2.1 11.4,-0.601 15.3,3.6 l 19.2,18.9 c 46.8,-56.1 118.299,-93.1 197.199,-93.1 141.002,0 256.001,115.6 256.001,256 z"
           style="fill:#52c5ff;fill-opacity:1"
           inkscape:connector-curvature="0" />
        <path
           id="path915"
           d="m 512.113,327.514 -14.399,99 c -0.601,5.7 -4.501,10.499 -9.901,11.999 -4.799,1.802 -11.4,0.901 -15.3,-3.6 l -17.699,-17.699 c -46.8,57.299 -118.902,94.9 -198.701,94.9 -138.6,0 -252.7,-112 -256,-249.701 0,-2.999 0,-9.899 0.3,-17.999 0.3,-7.2 5.7,-13.2 12.9,-14.399 l 30.3,-4.2 c 4.499,-0.601 9,0.899 12.299,3.9 3.3,3.3 5.101,7.8 4.501,12.299 -0.601,7.8 -0.3,12.001 -0.3,14.101 0,107.399 88.599,195 196,195 62.999,0 120.099,-30.3 155.501,-76.8 l -24.001,-24 c -4.199,-4.2 -5.4,-10.201 -3.6,-15.601 1.8,-5.4 6.301,-9.3 12.001,-9.901 6,-0.899 96,-13.801 99,-14.099 9.9,-1.501 18.299,7.5 17.099,16.8 z"
           style="fill:#52c5ff;fill-opacity:1"
           inkscape:connector-curvature="0" />
      </g>
      <path
         id="path919"
         d="m 2916.6751,-1301.1407 19.1652,19.6159 c 15.7286,17.5003 16.8078,43.8353 2.7326,63.0695 l -60.5001,79.6471 c -19.6804,24.7106 -55.7142,25.6794 -76.2162,1.8871 -8.1985,-9.7931 -16.4131,-18.2009 -25.3123,-27.3095 -0.6845,-0.7006 -0.6845,-0.7006 -1.3713,-1.4036 -245.0854,-249.4489 -651.2139,-251.1662 -901.3473,-6.7815 l -139.1921,-142.4663 c 329.3098,-321.7412 861.6717,-314.1648 1182.0415,13.7413 z"
         style="fill:#00a3f7;fill-opacity:1;stroke-width:3.26517987"
         inkscape:connector-curvature="0" />
      <path
         id="path921"
         d="m 3079.5983,-1134.3851 192.2727,264.072 c 11.6028,14.68381 13.4448,34.7911 4.2558,50.61628 -7.0962,15.15913 -24.5689,28.11723 -43.9479,26.50425 l -81.7225,-0.95003 c 21.4449,240.61252 -61.1509,492.95511 -247.5226,675.04337 l -139.192,-142.46631 c 147.135,-143.75341 211.3532,-344.81231 187.9296,-534.19525 l -110.8187,-1.28597 c -19.3905,-0.22772 -35.8888,-11.50265 -44.0068,-28.22173 -8.1179,-16.71908 -6.505,-36.09812 5.4361,-50.50823 11.9617,-15.79065 192.7176,-251.28868 199.0442,-258.83018 19.6988,-26.0935 59.8536,-24.2367 78.2721,0.2218 z"
         style="fill:#00a3f7;fill-opacity:1;stroke-width:3.26517987"
         inkscape:connector-curvature="0" />
    </g>
  </g>
</svg>
